<svg xmlns="http://www.w3.org/2000/svg" width="16" height="16" viewBox="0 0 16 16"><path fill="none" stroke="#8E5B34" stroke-linecap="round" stroke-linejoin="round" d="m1.87 8l.7-2.74a1 1 0 0 1 .96-.76h10.94a1 1 0 0 1 .97 1.24l-.219.875M6 13.5H2A1.5 1.5 0 0 1 .5 12V3.5a1 1 0 0 1 1-1h5a1 1 0 0 1 1 1v1"/><path fill="none" stroke="#2D7165" stroke-linecap="round" stroke-linejoin="round" d="M9.25 15.5L8 11.5"/><path fill="none" stroke="#87528A" stroke-linecap="round" stroke-linejoin="round" d="M13.75 15.5h-4.5"/><path fill="none" stroke="#536F30" stroke-linecap="round" stroke-linejoin="round" d="m15 11.5l-1.25 4"/><path fill="none" stroke="#2C4A73" stroke-linecap="round" stroke-linejoin="round" d="m8 11.5l3.5-3l3.5 3"/><path fill="none" stroke="#AC4343" stroke-linecap="round" stroke-linejoin="round" d="m8 11.5l3.5-3"/></svg>
